<?xml version="1.0" ?><svg height="100" id="svg2" style="enable-background:new" version="1.1" viewBox="0 0 100 100" width="100" xmlns="http://www.w3.org/2000/svg" xmlns:cc="http://creativecommons.org/ns#" xmlns:dc="http://purl.org/dc/elements/1.1/" xmlns:inkscape="http://www.inkscape.org/namespaces/inkscape" xmlns:rdf="http://www.w3.org/1999/02/22-rdf-syntax-ns#" xmlns:sodipodi="http://sodipodi.sourceforge.net/DTD/sodipodi-0.dtd" xmlns:svg="http://www.w3.org/2000/svg" xmlns:xlink="http://www.w3.org/1999/xlink"><defs id="defs4"><linearGradient id="linearGradient5919"><stop id="stop5921" offset="0" style="stop-color:#ffbf3e;stop-opacity:1"/><stop id="stop5923" offset="1" style="stop-color:#cdffdd;stop-opacity:1"/></linearGradient><clipPath clipPathUnits="userSpaceOnUse" id="clipPath4383"><path d="m 137.06914,104.55026 c -4.67344,8.09465 -9.07198,8.09465 -13.74543,0 -4.67345,-8.094646 -2.47418,-11.903892 6.87272,-11.903892 9.34689,0 11.54616,3.809247 6.87271,11.903892 z" id="path4385" style="opacity:1;fill:#e8273c;fill-opacity:1;fill-rule:nonzero;stroke:none;stroke-width:2;stroke-linecap:round;stroke-linejoin:round;stroke-miterlimit:4;stroke-dasharray:none;stroke-opacity:1" transform="matrix(1.0275292,0,0,1.168297,-3.8978949,-18.617223)"/></clipPath><clipPath clipPathUnits="userSpaceOnUse" id="clipPath4248"><g id="g4250"><ellipse cx="150.06837" cy="-16.3678" id="ellipse4252" rx="17.036831" ry="21.868845" style="opacity:1;fill:#c4eb52;fill-opacity:1;fill-rule:nonzero;stroke:none;stroke-width:1;stroke-linecap:round;stroke-linejoin:round;stroke-miterlimit:4;stroke-dasharray:none;stroke-dashoffset:0;stroke-opacity:1" transform="matrix(0.91910487,0.39401298,-0.35730784,0.93398667,0,0)"/><ellipse cx="-105.62783" cy="91.50058" id="ellipse4254" rx="17.036831" ry="21.868845" style="opacity:1;fill:#c4eb52;fill-opacity:1;fill-rule:nonzero;stroke:none;stroke-width:1;stroke-linecap:round;stroke-linejoin:round;stroke-miterlimit:4;stroke-dasharray:none;stroke-dashoffset:0;stroke-opacity:1" transform="matrix(-0.91910487,0.39401298,0.35730784,0.93398667,0,0)"/></g></clipPath><filter id="filter4384" style="color-interpolation-filters:sRGB"><feBlend id="feBlend4386" in2="BackgroundImage" mode="lighten"/></filter><clipPath clipPathUnits="userSpaceOnUse" id="clipPath4447"><path d="m 152.09469,34.277344 c -1.92767,-0.629222 -4.09292,-0.07372 -6.19336,-0.07227 -2.10224,0.0015 -4.27103,-0.551121 -6.20117,0.08008 -4.22429,1.381437 -6.23385,6.319236 -6.23633,10.763672 -0.004,6.869041 5.56846,12.4375 12.4375,12.4375 6.86904,0 12.4375,-5.568458 12.4375,-12.4375 -0.005,-4.448839 -2.0149,-9.390993 -6.24414,-10.771484 z" id="path4449" style="display:inline;opacity:1;fill:#bb0a0a;fill-opacity:1;fill-rule:nonzero;stroke:none;stroke-width:8;stroke-linecap:round;stroke-linejoin:round;stroke-miterlimit:4;stroke-dasharray:none;stroke-dashoffset:0;stroke-opacity:1;filter:url(#filter4384)"/></clipPath><clipPath clipPathUnits="userSpaceOnUse" id="clipPath4352"><path d="m 243.24414,26.527344 a 16.528621,18.738329 0 0 0 -16.52734,18.738281 16.528621,18.738329 0 0 0 0.42382,4.109375 24.57196,24.57196 0 0 0 -8.46874,18.517578 24.57196,24.57196 0 0 0 24.57226,24.572266 24.57196,24.57196 0 0 0 24.57227,-24.572266 24.57196,24.57196 0 0 0 -8.45703,-18.527344 16.528621,18.738329 0 0 0 0.41406,-4.099609 16.528621,18.738329 0 0 0 -16.5293,-18.738281 z" id="path4354" style="opacity:1;fill:#eef93d;fill-opacity:1;fill-rule:nonzero;stroke:none;stroke-width:7;stroke-linecap:round;stroke-linejoin:round;stroke-miterlimit:4;stroke-dasharray:none;stroke-dashoffset:0;stroke-opacity:1"/></clipPath><clipPath clipPathUnits="userSpaceOnUse" id="clipPath5836"><rect height="50" id="rect5838" ry="20.731707" style="opacity:1;fill:#ffd048;fill-opacity:1;fill-rule:nonzero;stroke:none;stroke-width:0.1;stroke-linecap:round;stroke-linejoin:round;stroke-miterlimit:4;stroke-dasharray:none;stroke-dashoffset:0;stroke-opacity:1" width="41.463413" x="96.166519" y="765.12787"/></clipPath><linearGradient gradientTransform="matrix(1.2462969,0,0,1.2443757,-99.090132,844.38873)" gradientUnits="userSpaceOnUse" id="linearGradient5916" x1="120.29289" x2="120.29289" xlink:href="#linearGradient5919" y1="164.28351" y2="88.264473"/></defs><g id="layer1" transform="translate(0,-952.36218)"><path d="m 50.665104,953.73825 c -2.58806,0.0126 -4.165399,1.77026 -5.065524,3.22274 -0.900425,1.45295 -1.480651,3.08997 -1.976539,5.00667 -0.240324,0.92886 -0.362947,2.08842 -0.547698,3.13524 -0.674894,-0.80061 -1.35384,-1.72979 -2.017928,-2.40369 -1.38586,-1.40628 -2.703481,-2.53181 -4.208683,-3.33696 -1.505203,-0.80516 -3.747852,-1.5359 -5.990501,-0.2552 a 3.8844397,3.8784519 0 0 0 -0.02434,0.0145 c -2.136925,1.23963 -2.681008,3.44861 -2.770094,5.08444 -0.08908,1.63583 0.181125,3.24358 0.645059,5.03583 0.221766,0.85672 0.645158,1.84813 0.963935,2.77311 -0.83852,-0.27833 -1.746273,-0.66133 -2.52668,-0.85794 -1.759666,-0.4433 -3.342284,-0.6978 -4.958409,-0.59787 -1.616124,0.0999 -3.796132,0.6593 -5.019266,2.76096 a 3.8844397,3.8784519 0 0 0 -0.0073,0.0125 c -1.312384,2.27469 -0.54658,4.5474 0.284797,6.06876 0.831375,1.52134 1.991841,2.85832 3.444356,4.26781 2.096964,2.03487 4.854089,4.15141 7.896462,6.13925 -4.938514,5.23885 -7.971921,12.2879 -7.971921,20.0436 l 0,10.6211 c 0,16.1526 13.132287,29.2646 29.309882,29.2646 16.177607,0 29.309888,-13.112 29.309888,-29.2646 l 0,-10.6211 c 0,-7.3801 -2.747624,-14.12071 -7.268441,-19.27073 3.526446,-2.20733 6.749034,-4.60817 9.12328,-6.91212 1.452521,-1.40949 2.612986,-2.74647 3.444353,-4.26781 0.831391,-1.52136 1.597179,-3.79407 0.284803,-6.06876 a 3.8844397,3.8784519 0 0 0 -0.0098,-0.0146 c -1.265252,-2.17075 -3.514931,-2.69299 -5.179922,-2.76824 -1.665002,-0.0753 -3.312993,0.21234 -5.15072,0.69995 -0.866849,0.23001 -1.868935,0.66455 -2.804167,0.9916 0.328099,-0.93528 0.762583,-1.9379 0.993149,-2.8047 0.488223,-1.83547 0.775034,-3.48187 0.698611,-5.1452 -0.07648,-1.66333 -0.60408,-3.91586 -2.782272,-5.17437 a 3.8844397,3.8784519 0 0 0 -0.0072,-0.002 c -2.277621,-1.31074 -4.549621,-0.54544 -6.073268,0.28436 -1.523661,0.8298 -2.867805,1.98676 -4.279285,3.43662 -0.687607,0.7063 -1.387591,1.67751 -2.086076,2.51791 -0.184154,-1.07727 -0.305717,-2.26964 -0.547698,-3.22517 -0.496439,-1.96042 -1.079481,-3.63181 -1.983843,-5.11116 -0.904376,-1.47937 -2.492308,-3.27866 -5.121508,-3.27866 a 3.8844397,3.8784519 0 0 0 -0.01704,0 l -0.0024,0 z" id="path5868" style="opacity:1;fill:#905d2b;fill-opacity:1;fill-rule:nonzero;stroke:none;stroke-width:3;stroke-linecap:round;stroke-linejoin:round;stroke-miterlimit:4;stroke-dasharray:none;stroke-dashoffset:0;stroke-opacity:1"/><path d="m 50.68386,957.61631 a 4.7238256,18.658092 0 0 0 -4.71732,18.23325 18.665299,4.7220017 59.956478 0 0 -13.18156,-13.37581 18.665299,4.7220017 59.956478 0 0 4.398195,16.99125 18.679701,4.7183609 29.956525 0 0 -16.657127,-4.19634 18.679701,4.7183609 29.956525 0 0 13.821964,13.41269 18.679701,4.7183609 29.956525 0 0 15.463155,6.05606 18.665299,4.7220017 59.956478 0 0 1.000777,0.20595 4.7220017,18.665299 30.043522 0 0 0.929125,-0.17559 4.7183609,18.679701 60.043475 0 0 16.090529,-6.08642 4.7183609,18.679701 60.043475 0 0 13.821969,-13.41269 4.7183609,18.679701 60.043475 0 0 -17.44949,4.62983 4.7220017,18.665299 30.043522 0 0 4.634816,-17.42474 4.7220017,18.665299 30.043522 0 0 -13.431205,13.79632 4.7238256,18.658092 0 0 0 -4.723828,-18.65376 z" id="path5851" style="opacity:1;fill:#38974e;fill-opacity:1;fill-rule:nonzero;stroke:none;stroke-width:3;stroke-linecap:round;stroke-linejoin:round;stroke-miterlimit:4;stroke-dasharray:none;stroke-dashoffset:0;stroke-opacity:1"/><path d="m 50.684572,957.61721 a 4.7238256,18.658092 0 0 0 -4.717434,18.23301 18.665299,4.7220017 59.956478 0 0 -13.181048,-13.37704 18.665299,4.7220017 59.956478 0 0 4.396125,16.99108 18.679701,4.7183609 29.956525 0 0 -16.657055,-4.19491 18.679701,4.7183609 29.956525 0 0 13.823675,13.41107 18.679701,4.7183609 29.956525 0 0 15.461869,6.05662 18.665299,4.7220017 59.956478 0 0 1.000441,0.20656 4.7220017,18.665299 30.043522 0 0 0.929862,-0.17496 4.7183609,18.679701 60.043475 0 0 16.08988,-6.08822 4.7183609,18.679701 60.043475 0 0 13.823677,-13.41107 4.7183609,18.679701 60.043475 0 0 -17.450587,4.62997 4.7220017,18.665299 30.043522 0 0 4.634667,-17.42614 4.7220017,18.665299 30.043522 0 0 -13.431779,13.7975 4.7238256,18.658092 0 0 0 -4.722293,-18.65347 z m 0.13632,1.78393 c 0.03282,-0.002 -0.05051,0.10065 -0.13632,0.19685 0.07287,0.0815 0.136306,0.13676 0.279929,0.37186 0.417796,0.6839 0.914384,1.9321 1.324191,3.55086 0.819603,3.23749 1.328765,7.98525 1.329065,12.74997 a 1.7891727,1.7864147 0 0 0 3.337246,0.89441 c 2.386845,-4.12705 5.207401,-7.98603 7.538639,-10.38034 1.165622,-1.19714 2.222009,-2.03029 2.925881,-2.41341 0.24102,-0.13119 0.321606,-0.14577 0.428414,-0.17985 -0.04718,-0.22027 -0.08251,-0.27272 0.09493,-0.17013 0.175366,0.10107 0.110151,0.10466 -0.09493,0.17013 0.02065,0.0965 0.04104,0.14016 0.05111,0.35971 0.03308,0.72114 -0.119956,1.94271 -0.516042,3.43175 -0.792171,2.97812 -2.532874,7.06937 -4.744203,11.04869 a 1.7891727,1.7864147 0 0 0 2.434167,2.43043 c 3.984423,-2.20741 8.080615,-3.94552 11.063327,-4.73689 1.491345,-0.39568 2.713987,-0.55042 3.437051,-0.51768 0.221317,0.009 0.267854,0.0294 0.362684,0.0487 0.06319,-0.19594 0.06877,-0.25661 0.163091,-0.09 0.09735,0.16141 0.04631,0.13229 -0.163091,0.09 -0.0339,0.10507 -0.04972,0.18954 -0.182557,0.43261 -0.384495,0.70349 -1.21742,1.75726 -2.417131,2.92137 -2.399445,2.32826 -6.264947,5.14416 -10.39879,7.527 l 0,-0.002 c -6.013532,3.46385 -12.620539,5.80397 -15.22576,5.84761 a 1.7891727,1.7864147 0 0 0 -0.579328,0.10689 c -0.186584,0.0675 -0.285653,0.0678 -0.272628,0.0682 a 1.7891727,1.7864147 0 0 0 -0.09007,0 c 0.01196,-2.6e-4 -0.104339,-0.003 -0.316447,-0.0851 a 1.7891727,1.7864147 0 0 0 -0.489259,-0.11174 c -2.914491,-0.25129 -9.065565,-2.5667 -14.721882,-5.82572 l 0,0.002 c -4.133855,-2.38284 -7.999358,-5.19874 -10.398795,-7.527 -1.199721,-1.1641 -2.032644,-2.21789 -2.417135,-2.92137 -0.133496,-0.24426 -0.148565,-0.33078 -0.182562,-0.43504 -0.219047,0.0432 -0.261539,0.0768 -0.163091,-0.0851 0.09228,-0.16396 0.100524,-0.10679 0.163091,0.0851 0.08517,-0.0168 0.111617,-0.03 0.294534,-0.0412 0.667124,-0.0411 1.813144,0.0852 3.22041,0.43991 2.814538,0.70921 6.709938,2.30817 10.574058,4.38691 a 1.7891727,1.7864147 0 0 0 2.419561,-2.42799 c -2.141177,-3.91515 -3.805182,-7.89768 -4.551901,-10.78377 -0.373365,-1.44306 -0.510097,-2.62232 -0.472235,-3.31268 0.01102,-0.19918 0.02877,-0.23429 0.04626,-0.32325 -0.196941,-0.0643 -0.257547,-0.0686 -0.0925,-0.16041 0.16222,-0.0975 0.134438,-0.0529 0.0925,0.16041 0.100002,0.0325 0.170992,0.0446 0.396771,0.16528 0.680453,0.36392 1.706055,1.16243 2.843114,2.31618 2.27412,2.30751 5.03818,6.04307 7.409623,10.08139 a 1.7891727,1.7864147 0 0 0 3.332385,-0.8944 c 0.02708,-4.6927 0.546128,-9.32453 1.360707,-12.47291 0.40729,-1.57419 0.898531,-2.78459 1.307154,-3.44391 0.135422,-0.2185 0.190247,-0.26639 0.260451,-0.34513 -0.135447,-0.15146 -0.183841,-0.18736 0.0023,-0.1847 0.07036,-10e-4 0.113986,-0.0113 0.13389,-0.0124 z" id="path5901" style="opacity:1;fill:#ffffff;fill-opacity:0.14509804;fill-rule:nonzero;stroke:none;stroke-width:3;stroke-linecap:round;stroke-linejoin:round;stroke-miterlimit:4;stroke-dasharray:none;stroke-dashoffset:0;stroke-opacity:1"/><rect height="62.218792" id="rect5795" ry="25.798033" style="opacity:1;fill:#ffcb34;fill-opacity:1;fill-rule:nonzero;stroke:none;stroke-width:0.1;stroke-linecap:round;stroke-linejoin:round;stroke-miterlimit:4;stroke-dasharray:none;stroke-dashoffset:0;stroke-opacity:1" width="51.67572" x="24.286968" y="984.0517"/><g clip-path="url(#clipPath5836)" id="g5822" style="fill:#905d2b;fill-opacity:1" transform="matrix(1.2462969,0,0,1.2443757,-95.565073,31.945103)"><path d="m 116.8457,119.44727 c -0.30212,0.006 -0.60792,0.0322 -0.91406,0.0801 -1.22454,0.19135 -2.46946,0.73461 -3.63281,1.77344 -2.46029,2.19694 -3.92316,3.05643 -5.11914,3.0332 -1.19599,-0.0232 -2.66463,-0.95497 -5.08594,-3.125 -1.44637,-1.29626 -3.157539,-1.69463 -4.720703,-1.49023 -1.563165,0.2044 -2.99093,0.93704 -4.222656,1.7832 -2.463453,1.69233 -4.205079,3.93164 -4.205079,3.93164 l 1.541016,1.20899 c 0,0 1.623486,-2.05039 3.773438,-3.52735 1.074975,-0.73848 2.26334,-1.31073 3.367187,-1.45507 1.103847,-0.14434 2.107895,0.0648 3.160157,1.00781 2.49081,2.23231 4.27558,3.58266 6.35547,3.62305 2.07988,0.0404 3.91495,-1.25584 6.46094,-3.5293 1.84129,-1.64421 3.47706,-1.63454 5.20703,-1.03906 1.58246,0.54471 3.12273,1.67932 4.39843,2.64843 0.61442,0.49001 1.25607,0.98703 1.99219,1.38282 0.87763,0.47187 1.94229,0.76424 3.10742,0.55859 1.16514,-0.20565 2.36809,-0.86275 3.70313,-2.05273 2.40491,-2.14361 3.79632,-2.85728 5.0332,-2.74024 1.23688,0.11704 2.81122,1.19938 5.30469,3.40039 1.44409,1.27472 3.10815,1.67522 4.61133,1.46485 1.50318,-0.21036 2.84176,-0.95224 3.97656,-1.80274 2.2696,-1.701 3.80273,-3.9375 3.80273,-3.9375 l -1.60937,-1.11719 c 0,0 -1.42499,2.0312 -3.36914,3.48828 -0.97207,0.72856 -2.05349,1.28712 -3.07227,1.42969 -1.01877,0.14257 -1.97754,-0.0519 -3.04492,-0.99414 -2.54136,-2.24329 -4.32304,-3.68496 -6.41406,-3.88281 -2.09102,-0.19786 -4.00097,0.98186 -6.52149,3.22852 -1.16457,1.03804 -2.05755,1.46544 -2.74023,1.58593 -0.68268,0.1205 -1.21569,-0.0179 -1.83984,-0.35351 -1.21786,-0.65479 -2.53548,-2.18815 -4.46289,-3.09375 -0.69407,-0.40832 -1.42363,-0.79076 -2.21875,-1.06446 -0.81477,-0.28045 -1.69521,-0.4417 -2.60157,-0.42382 z" id="path5807" style="color:#000000;font-style:normal;font-variant:normal;font-weight:normal;font-stretch:normal;font-size:medium;line-height:normal;font-family:sans-serif;text-indent:0;text-align:start;text-decoration:none;text-decoration-line:none;text-decoration-style:solid;text-decoration-color:#000000;letter-spacing:normal;word-spacing:normal;text-transform:none;direction:ltr;block-progression:tb;writing-mode:lr-tb;baseline-shift:baseline;text-anchor:start;white-space:normal;clip-rule:nonzero;display:inline;overflow:visible;visibility:visible;opacity:1;isolation:auto;mix-blend-mode:normal;color-interpolation:sRGB;color-interpolation-filters:linearRGB;solid-color:#000000;solid-opacity:1;fill:#905d2b;fill-opacity:1;fill-rule:evenodd;stroke:none;stroke-width:1.95875406;stroke-linecap:butt;stroke-linejoin:miter;stroke-miterlimit:4;stroke-dasharray:none;stroke-dashoffset:0;stroke-opacity:1;color-rendering:auto;image-rendering:auto;shape-rendering:auto;text-rendering:auto;enable-background:accumulate" transform="translate(0,652.36218)"/><path d="m 116.8457,781.69701 c -0.30212,0.006 -0.60792,0.0322 -0.91406,0.0801 -1.22454,0.19135 -2.46946,0.73461 -3.63281,1.77344 -2.46029,2.19694 -3.92316,3.05643 -5.11914,3.0332 -1.19599,-0.0232 -2.66463,-0.95497 -5.08594,-3.125 -1.44637,-1.29626 -3.157539,-1.69463 -4.720703,-1.49023 -1.563165,0.2044 -2.99093,0.93704 -4.222656,1.7832 -2.463453,1.69233 -4.205079,3.93164 -4.205079,3.93164 l 1.541016,1.20899 c 0,0 1.623486,-2.05039 3.773438,-3.52735 1.074975,-0.73848 2.26334,-1.31073 3.367187,-1.45507 1.103847,-0.14434 2.107895,0.0648 3.160157,1.00781 2.49081,2.23231 4.27558,3.58266 6.35547,3.62305 2.07988,0.0404 3.91495,-1.25584 6.46094,-3.5293 1.84129,-1.64421 3.47706,-1.63454 5.20703,-1.03906 1.58246,0.54471 3.12273,1.67932 4.39843,2.64843 0.61442,0.49001 1.25607,0.98703 1.99219,1.38282 0.87763,0.47187 1.94229,0.76424 3.10742,0.55859 1.16514,-0.20565 2.36809,-0.86275 3.70313,-2.05273 2.40491,-2.14361 3.79632,-2.85728 5.0332,-2.74024 1.23688,0.11704 2.81122,1.19938 5.30469,3.40039 1.44409,1.27472 3.10815,1.67522 4.61133,1.46485 1.50318,-0.21036 2.84176,-0.95224 3.97656,-1.80274 2.2696,-1.701 3.80273,-3.9375 3.80273,-3.9375 l -1.60937,-1.11719 c 0,0 -1.42499,2.0312 -3.36914,3.48828 -0.97207,0.72856 -2.05349,1.28712 -3.07227,1.42969 -1.01877,0.14257 -1.97754,-0.0519 -3.04492,-0.99414 -2.54136,-2.24329 -4.32304,-3.68496 -6.41406,-3.88281 -2.09102,-0.19786 -4.00097,0.98186 -6.52149,3.22852 -1.16457,1.03804 -2.05755,1.46544 -2.74023,1.58593 -0.68268,0.1205 -1.21569,-0.0179 -1.83984,-0.35351 -1.21786,-0.65479 -2.53548,-2.18815 -4.46289,-3.09375 -0.69407,-0.40832 -1.42363,-0.79076 -2.21875,-1.06446 -0.81477,-0.28045 -1.69521,-0.4417 -2.60157,-0.42382 z" id="path5816" style="color:#000000;font-style:normal;font-variant:normal;font-weight:normal;font-stretch:normal;font-size:medium;line-height:normal;font-family:sans-serif;text-indent:0;text-align:start;text-decoration:none;text-decoration-line:none;text-decoration-style:solid;text-decoration-color:#000000;letter-spacing:normal;word-spacing:normal;text-transform:none;direction:ltr;block-progression:tb;writing-mode:lr-tb;baseline-shift:baseline;text-anchor:start;white-space:normal;clip-rule:nonzero;display:inline;overflow:visible;visibility:visible;opacity:1;isolation:auto;mix-blend-mode:normal;color-interpolation:sRGB;color-interpolation-filters:linearRGB;solid-color:#000000;solid-opacity:1;fill:#905d2b;fill-opacity:1;fill-rule:evenodd;stroke:none;stroke-width:1.95875406;stroke-linecap:butt;stroke-linejoin:miter;stroke-miterlimit:4;stroke-dasharray:none;stroke-dashoffset:0;stroke-opacity:1;color-rendering:auto;image-rendering:auto;shape-rendering:auto;text-rendering:auto;enable-background:accumulate"/><path d="m 116.8457,792.30057 c -0.30212,0.006 -0.60792,0.0322 -0.91406,0.0801 -1.22454,0.19135 -2.46946,0.73461 -3.63281,1.77344 -2.46029,2.19694 -3.92316,3.05643 -5.11914,3.0332 -1.19599,-0.0232 -2.66463,-0.95497 -5.08594,-3.125 -1.44637,-1.29626 -3.157539,-1.69463 -4.720703,-1.49023 -1.563165,0.2044 -2.99093,0.93704 -4.222656,1.7832 -2.463453,1.69233 -4.205079,3.93164 -4.205079,3.93164 l 1.541016,1.20899 c 0,0 1.623486,-2.05039 3.773438,-3.52735 1.074975,-0.73848 2.26334,-1.31073 3.367187,-1.45507 1.103847,-0.14434 2.107895,0.0648 3.160157,1.00781 2.49081,2.23231 4.27558,3.58266 6.35547,3.62305 2.07988,0.0404 3.91495,-1.25584 6.46094,-3.5293 1.84129,-1.64421 3.47706,-1.63454 5.20703,-1.03906 1.58246,0.54471 3.12273,1.67932 4.39843,2.64843 0.61442,0.49001 1.25607,0.98703 1.99219,1.38282 0.87763,0.47187 1.94229,0.76424 3.10742,0.55859 1.16514,-0.20565 2.36809,-0.86275 3.70313,-2.05273 2.40491,-2.14361 3.79632,-2.85728 5.0332,-2.74024 1.23688,0.11704 2.81122,1.19938 5.30469,3.40039 1.44409,1.27472 3.10815,1.67522 4.61133,1.46485 1.50318,-0.21036 2.84176,-0.95224 3.97656,-1.80274 2.2696,-1.701 3.80273,-3.9375 3.80273,-3.9375 l -1.60937,-1.11719 c 0,0 -1.42499,2.0312 -3.36914,3.48828 -0.97207,0.72856 -2.05349,1.28712 -3.07227,1.42969 -1.01877,0.14257 -1.97754,-0.0519 -3.04492,-0.99414 -2.54136,-2.24329 -4.32304,-3.68496 -6.41406,-3.88281 -2.09102,-0.19786 -4.00097,0.98186 -6.52149,3.22852 -1.16457,1.03804 -2.05755,1.46544 -2.74023,1.58593 -0.68268,0.1205 -1.21569,-0.0179 -1.83984,-0.35351 -1.21786,-0.65479 -2.53548,-2.18815 -4.46289,-3.09375 -0.69407,-0.40832 -1.42363,-0.79076 -2.21875,-1.06446 -0.81477,-0.28045 -1.69521,-0.4417 -2.60157,-0.42382 z" id="path5818" style="color:#000000;font-style:normal;font-variant:normal;font-weight:normal;font-stretch:normal;font-size:medium;line-height:normal;font-family:sans-serif;text-indent:0;text-align:start;text-decoration:none;text-decoration-line:none;text-decoration-style:solid;text-decoration-color:#000000;letter-spacing:normal;word-spacing:normal;text-transform:none;direction:ltr;block-progression:tb;writing-mode:lr-tb;baseline-shift:baseline;text-anchor:start;white-space:normal;clip-rule:nonzero;display:inline;overflow:visible;visibility:visible;opacity:1;isolation:auto;mix-blend-mode:normal;color-interpolation:sRGB;color-interpolation-filters:linearRGB;solid-color:#000000;solid-opacity:1;fill:#905d2b;fill-opacity:1;fill-rule:evenodd;stroke:none;stroke-width:1.95875406;stroke-linecap:butt;stroke-linejoin:miter;stroke-miterlimit:4;stroke-dasharray:none;stroke-dashoffset:0;stroke-opacity:1;color-rendering:auto;image-rendering:auto;shape-rendering:auto;text-rendering:auto;enable-background:accumulate"/><path d="m 116.8457,802.17557 c -0.30212,0.006 -0.60792,0.0322 -0.91406,0.0801 -1.22454,0.19135 -2.46946,0.73461 -3.63281,1.77344 -2.46029,2.19694 -3.92316,3.05643 -5.11914,3.0332 -1.19599,-0.0232 -2.66463,-0.95497 -5.08594,-3.125 -1.44637,-1.29626 -3.157539,-1.69463 -4.720703,-1.49023 -1.563165,0.2044 -2.99093,0.93704 -4.222656,1.7832 -2.463453,1.69233 -4.205079,3.93164 -4.205079,3.93164 l 1.541016,1.20899 c 0,0 1.623486,-2.05039 3.773438,-3.52735 1.074975,-0.73848 2.26334,-1.31073 3.367187,-1.45507 1.103847,-0.14434 2.107895,0.0648 3.160157,1.00781 2.49081,2.23231 4.27558,3.58266 6.35547,3.62305 2.07988,0.0404 3.91495,-1.25584 6.46094,-3.5293 1.84129,-1.64421 3.47706,-1.63454 5.20703,-1.03906 1.58246,0.54471 3.12273,1.67932 4.39843,2.64843 0.61442,0.49001 1.25607,0.98703 1.99219,1.38282 0.87763,0.47187 1.94229,0.76424 3.10742,0.55859 1.16514,-0.20565 2.36809,-0.86275 3.70313,-2.05273 2.40491,-2.14361 3.79632,-2.85728 5.0332,-2.74024 1.23688,0.11704 2.81122,1.19938 5.30469,3.40039 1.44409,1.27472 3.10815,1.67522 4.61133,1.46485 1.50318,-0.21036 2.84176,-0.95224 3.97656,-1.80274 2.2696,-1.701 3.80273,-3.9375 3.80273,-3.9375 l -1.60937,-1.11719 c 0,0 -1.42499,2.0312 -3.36914,3.48828 -0.97207,0.72856 -2.05349,1.28712 -3.07227,1.42969 -1.01877,0.14257 -1.97754,-0.0519 -3.04492,-0.99414 -2.54136,-2.24329 -4.32304,-3.68496 -6.41406,-3.88281 -2.09102,-0.19786 -4.00097,0.98186 -6.52149,3.22852 -1.16457,1.03804 -2.05755,1.46544 -2.74023,1.58593 -0.68268,0.1205 -1.21569,-0.0179 -1.83984,-0.35351 -1.21786,-0.65479 -2.53548,-2.18815 -4.46289,-3.09375 -0.69407,-0.40832 -1.42363,-0.79076 -2.21875,-1.06446 -0.81477,-0.28045 -1.69521,-0.4417 -2.60157,-0.42382 z" id="path5820" style="color:#000000;font-style:normal;font-variant:normal;font-weight:normal;font-stretch:normal;font-size:medium;line-height:normal;font-family:sans-serif;text-indent:0;text-align:start;text-decoration:none;text-decoration-line:none;text-decoration-style:solid;text-decoration-color:#000000;letter-spacing:normal;word-spacing:normal;text-transform:none;direction:ltr;block-progression:tb;writing-mode:lr-tb;baseline-shift:baseline;text-anchor:start;white-space:normal;clip-rule:nonzero;display:inline;overflow:visible;visibility:visible;opacity:1;isolation:auto;mix-blend-mode:normal;color-interpolation:sRGB;color-interpolation-filters:linearRGB;solid-color:#000000;solid-opacity:1;fill:#905d2b;fill-opacity:1;fill-rule:evenodd;stroke:none;stroke-width:1.95875406;stroke-linecap:butt;stroke-linejoin:miter;stroke-miterlimit:4;stroke-dasharray:none;stroke-dashoffset:0;stroke-opacity:1;color-rendering:auto;image-rendering:auto;shape-rendering:auto;text-rendering:auto;enable-background:accumulate"/></g><path d="m 50.12471,984.0529 c -14.314169,0 -25.83875,11.50444 -25.83875,25.7964 l 0,10.6235 c 0,14.2921 11.524581,25.7989 25.83875,25.7989 14.31418,0 25.83875,-11.5068 25.83875,-25.7989 l 0,-10.6235 c 0,-14.29196 -11.52457,-25.7964 -25.83875,-25.7964 z m 0,2.43528 c 13.00522,0 23.39971,10.37849 23.39971,23.36362 l 0,10.621 c 0,12.9852 -10.39449,23.3636 -23.39971,23.3636 -13.005196,0 -23.39971,-10.3784 -23.39971,-23.3636 l 0,-10.621 c 0,-12.98513 10.394514,-23.36362 23.39971,-23.36362 z" id="rect5844" style="opacity:1;fill:#ffffff;fill-opacity:0.30718958;fill-rule:nonzero;stroke:none;stroke-width:0.1;stroke-linecap:round;stroke-linejoin:round;stroke-miterlimit:4;stroke-dasharray:none;stroke-dashoffset:0;stroke-opacity:1"/><path d="m 50.12471,984.0529 c -14.314169,0 -25.83875,11.50444 -25.83875,25.7964 l 0,10.6235 c 0,0.4582 0.01311,0.9136 0.03651,1.3659 10.145405,-17.7918 29.293011,-26.00139 50.837709,-18.4226 -2.8485,-11.15952 -12.947418,-19.3632 -25.035476,-19.3632 z" id="path5872" style="fill:#ffffff;fill-opacity:0.32941176;fill-rule:evenodd;stroke:none;stroke-width:1px;stroke-linecap:butt;stroke-linejoin:miter;stroke-opacity:1"/></g><g id="layer2" style="display:inline;opacity:0.4;" transform="translate(0,-952.36218)"><path d="m 50.664808,953.73902 c -2.58806,0.0126 -4.165332,1.77029 -5.065457,3.22278 -0.900425,1.45295 -1.481211,3.08998 -1.977099,5.00668 -0.240324,0.92887 -0.363025,2.08774 -0.547775,3.13456 -0.674895,-0.80061 -1.352279,-1.72946 -2.016367,-2.40336 -1.385859,-1.40628 -2.704232,-2.53133 -4.209434,-3.33648 -1.505203,-0.80516 -3.747547,-1.5375 -5.990196,-0.2568 a 3.8844397,3.8784519 0 0 0 -0.02552,0.0156 c -2.136925,1.23963 -2.679245,3.4473 -2.768331,5.08313 -0.08908,1.63584 0.180046,3.24383 0.643981,5.03609 0.221765,0.85672 0.64523,1.84888 0.964007,2.77386 -0.83852,-0.27833 -1.746432,-0.66201 -2.526839,-0.85862 -1.759665,-0.4433 -3.341346,-0.69784 -4.957471,-0.5979 -1.616124,0.0999 -3.797167,0.66044 -5.0203,2.7621 a 3.8844397,3.8784519 0 0 0 -0.0078,0.0117 c -1.312384,2.2747 -0.544727,4.54783 0.28665,6.06919 0.831375,1.52134 1.991209,2.85814 3.443725,4.26763 2.096963,2.03487 4.854242,4.15191 7.896615,6.13975 -4.938514,5.23885 -7.973186,12.28667 -7.973186,20.04237 l 0,10.6211 c 0,16.1527 13.133336,29.2657 29.310931,29.2657 16.177606,0 29.308967,-13.113 29.308967,-29.2657 l 0,-10.6211 c 0,-7.3801 -2.747523,-14.11998 -7.26834,-19.27 3.526446,-2.20733 6.749466,-4.60817 9.123711,-6.91212 1.452521,-1.40949 2.612359,-2.74629 3.443726,-4.26763 0.831391,-1.52136 1.597062,-3.79449 0.284686,-6.06919 a 3.8844397,3.8784519 0 0 0 -0.0078,-0.0137 c -1.265252,-2.17074 -3.516304,-2.6947 -5.181293,-2.76994 -1.665004,-0.0753 -3.312155,0.21418 -5.149881,0.70179 -0.866849,0.23001 -1.86844,0.66292 -2.803672,0.98997 0.328099,-0.93528 0.760929,-1.93646 0.991494,-2.80327 0.488223,-1.83546 0.775378,-3.48253 0.698955,-5.14586 -0.07648,-1.66333 -0.603883,-3.91675 -2.782074,-5.17527 a 3.8844397,3.8784519 0 0 0 -0.0078,-0.002 c -2.277621,-1.31074 -4.549011,-0.54556 -6.072658,0.28424 -1.523661,0.8298 -2.866671,1.98856 -4.278151,3.43842 -0.687607,0.70629 -1.388561,1.67666 -2.087047,2.51705 -0.184154,-1.07726 -0.305795,-2.2692 -0.547776,-3.22474 -0.496439,-1.96042 -1.078627,-3.63319 -1.982989,-5.11253 -0.904415,-1.4792 -2.493233,-3.2775 -5.122433,-3.2775 a 3.8844397,3.8784519 0 0 0 -0.01767,0 l -0.002,0 z" id="path4391" style="opacity:1;fill:url(#linearGradient5916);fill-opacity:1;fill-rule:nonzero;stroke:none;stroke-width:3;stroke-linecap:round;stroke-linejoin:round;stroke-miterlimit:4;stroke-dasharray:none;stroke-dashoffset:0;stroke-opacity:1;enable-background:new"/></g></svg>